# xmcd
#
# Track frame offsets:
#	150
#	16525
#	34962
#	52248
#	71666
#	91229
#	108461
#	129721
#	148122
#	168206
#	185626
#	207903
#
# Disc length: 2966 seconds
#
# Revision: 1
# Processed by: cddbd v1.5.2PL0 Copyright (c) Steve Scherf et al.
# Submitted via: audiograbber 1.83.01
#
DISCID=ad0b940c
DTITLE=Rascal Flatts - Unstoppable
DYEAR=2009
DGENRE=Country
TTITLE0=Love Who You Love
TTITLE1=Here Comes Goodbye
TTITLE2=Close
TTITLE3=Forever
TTITLE4=She'd Be California
TTITLE5=Unstoppable
TTITLE6=Things That Matter
TTITLE7=Summer Nights
TTITLE8=Holdin' On
TTITLE9=Once
TTITLE10=Why
TTITLE11=American Living (Bonus)
EXTD=
EXTT0=
EXTT1=
EXTT2=
EXTT3=
EXTT4=
EXTT5=
EXTT6=
EXTT7=
EXTT8=
EXTT9=
EXTT10=
EXTT11=
PLAYORDER=
